<?xml version="1.0" encoding="utf-8"?>
<!-- Generator: Adobe Illustrator 18.1.1, SVG Export Plug-In . SVG Version: 6.00 Build 0)  -->
<svg version="1.1" id="Layer_2" xmlns="http://www.w3.org/2000/svg" xmlns:xlink="http://www.w3.org/1999/xlink" x="0px" y="0px"
	 viewBox="0 0 770.3 115.5" enable-background="new 0 0 770.3 115.5" xml:space="preserve">
<polygon fill="#0093D0" points="82.8,0 32.7,0 32.7,33 0,33 0,82.8 32.7,82.8 32.7,115.5 82.8,115.5 82.8,82.8 115.5,82.8 115.5,33 
	82.8,33 "/>
<path fill="#0093D0" d="M136,33.1h43.9c12.2,0,18.1,3.3,18.1,13c0,8.5-3.1,10.2-7.3,11.4v0.2c6.7,0.8,9.1,4.4,9.1,11.9
	c0,10.9-6.5,13.2-15.2,13.2H136V33.1z M151.3,70.9h27.3c3.3,0,5.5-0.8,5.5-3.6c0-3.4-2.2-4.1-5.5-4.1h-27.3V70.9z M151.3,52.8h27
	c2.8,0,4.5-1,4.5-3.8c0-2.9-1.7-3.9-4.5-3.9h-27V52.8z"/>
<path fill="#0093D0" d="M204.8,33.1h15.2v36.9h34.3v12.8h-49.5V33.1z"/>
<path fill="#0093D0" d="M259,33.1h15.2v28.7c0,6.3,2.3,8.8,8.5,8.8h15.1c6.2,0,8.5-2.5,8.5-8.8V33.1h15.2v32
	c0,12.4-6.4,18.3-20.4,18.3h-21.8c-14,0-20.4-5.9-20.4-18.3V33.1z"/>
<path fill="#0093D0" d="M327.8,33.1h54.4v11.5h-39.1v8h37.1v10.3h-37.1v8h40v11.9h-55.3V33.1z"/>
<path fill="#0093D0" d="M410.2,50.6c0-14.6,8.2-18,21.9-18H450c21.7,0,24.5,4.7,24.4,18.8h-15.2V50c0-3.6-2.6-4.6-7.1-4.6h-16.6
	c-8,0-9.5,3.8-9.5,10v5.4c0,7.2,1.5,10,8.7,10h16.3c6.9,0,8.9-0.7,8.9-6.9H475v4.7c0,8.4-3,15-18.3,15h-24.6
	c-13.7,0-21.9-3.4-21.9-18V50.6z"/>
<path fill="#0093D0" d="M479.8,33.1h46c11.7,0,14.9,5.8,14.9,14.8v3.2c0,6.7-1.5,10.6-8.5,12.2v0.1c4.5,0.8,8.3,2.8,8.3,11v8.4
	h-15.2v-6c0-5.2-1.5-6.9-6.3-6.9h-24v12.9h-15.2V33.1z M495,57.6h25.2c4.1,0,5.6-1.6,5.6-5.2v-1.6c0-4.4-2.2-5.2-7-5.2H495V57.6z"/>
<path fill="#0093D0" d="M545.2,50.6c0-14.6,8.2-18,21.9-18h24.4c13.7,0,21.9,3.4,21.9,18v14.8c0,14.6-8.2,18-21.9,18h-24.4
	c-13.7,0-21.9-3.4-21.9-18V50.6z M560.1,60.7c0,7.2,1.5,10,8.7,10h19.5c7.2,0,8.7-2.7,8.7-10v-5.4c0-6.2-1.5-10-9.5-10h-17.9
	c-8,0-9.5,3.8-9.5,10V60.7z"/>
<path fill="#0093D0" d="M617.6,66.6h15.2c0.1,5.3,2.2,5.7,6.6,5.7h18.7c3.2,0,6.5-0.3,6.5-4.2c0-4.3-1.8-4.6-21.4-4.6
	c-22.9,0-25.5-2.7-25.5-15c0-9,0.8-15.9,20.1-15.9H659c17.6,0,19.2,6,19.2,14.7v1.6H663c0-3.6-0.4-5.2-7.4-5.2h-16.9
	c-3.4,0-5.8,1.2-5.8,3.8c0,4.3,1.9,4.5,18.2,4.4c23.7-0.1,29.2,1.4,29.2,15.9c0,13.4-4.5,15.6-24.8,15.6h-18.5
	c-13.9,0-19.4-2.6-19.4-13.4V66.6z"/>
<path fill="#0093D0" d="M684.4,66.6h15.2c0.1,5.3,2.2,5.7,6.6,5.7h18.7c3.2,0,6.5-0.3,6.5-4.2c0-4.3-1.8-4.6-21.4-4.6
	c-22.9,0-25.5-2.7-25.5-15c0-9,0.8-15.9,20.1-15.9h21.3c17.6,0,19.2,6,19.2,14.7v1.6h-15.2c0-3.6-0.4-5.2-7.4-5.2h-16.9
	c-3.4,0-5.8,1.2-5.8,3.8c0,4.3,1.9,4.5,18.2,4.4c23.7-0.1,29.2,1.4,29.2,15.9c0,13.4-4.5,15.6-24.8,15.6h-18.5
	c-13.9,0-19.4-2.6-19.4-13.4V66.6z"/>
<g>
	<path fill="#0093D0" d="M754.4,42.9v-8.2h-3V33h8v1.7h-3v8.2H754.4z M760.5,42.9V33h3.1l1.8,6.8l1.8-6.8h3.1v9.9h-1.9V35l-2.1,7.9
		h-1.8l-2.1-7.9v7.9H760.5z"/>
</g>
</svg>
