<?xml version="1.0" encoding="utf-8"?>
<!-- Generator: Adobe Illustrator 18.1.1, SVG Export Plug-In . SVG Version: 6.00 Build 0)  -->
<svg version="1.1" id="medavie-cyan" xmlns="http://www.w3.org/2000/svg" xmlns:xlink="http://www.w3.org/1999/xlink" x="0px"
	 y="0px" viewBox="0 0 789.3 115.1" enable-background="new 0 0 789.3 115.1" xml:space="preserve">
<polygon fill="#0093D0" points="82.6,0 32.6,0 32.6,32.9 0,32.9 0,82.6 32.6,82.6 32.6,115.1 82.6,115.1 82.6,82.6 115.1,82.6 
	115.1,32.9 82.6,32.9 "/>
<g>
	<path fill="#0093D0" d="M456.6,33h43.7c12.1,0,18,3.3,18,13c0,8.5-3.1,10.1-7.3,11.4v0.2c6.6,0.8,9.1,4.4,9.1,11.8
		c0,10.9-6.4,13.1-15.1,13.1h-48.4V33z M471.8,70.7h27.2c3.3,0,5.5-0.8,5.5-3.6c0-3.3-2.2-4.1-5.5-4.1h-27.2V70.7z M471.8,52.7h26.9
		c2.8,0,4.5-1,4.5-3.8c0-2.9-1.6-3.9-4.5-3.9h-26.9V52.7z"/>
	<path fill="#0093D0" d="M525.2,33h15.2v36.8h34.2v12.7h-49.4V33z"/>
	<path fill="#0093D0" d="M639.3,33h15.2v28.6c0,6.3,2.3,8.8,8.5,8.8h15.1c6.2,0,8.5-2.5,8.5-8.8V33h15.2v31.9
		c0,12.3-6.4,18.2-20.3,18.2h-21.8c-14,0-20.3-5.9-20.3-18.2V33z"/>
	<path fill="#0093D0" d="M578.8,33H633v11.5h-39v7.9h37v10.3h-37v7.9h39.9v11.9h-55.1V33z"/>
	<polygon fill="#0093D0" points="358.3,82.6 343.8,82.6 343.8,33 359,33 359,82.6 	"/>
	<path fill="#0093D0" d="M136,50.4c0-14.5,8.1-17.9,21.8-17.9h17.9c21.6,0,24.4,4.7,24.3,18.7h-15.2v-1.4c0-3.6-2.6-4.6-7.1-4.6
		h-16.6c-8,0-9.5,3.8-9.5,9.9v5.3c0,7.2,1.5,9.9,8.7,9.9h16.2c6.8,0,8.9-0.7,8.9-6.8h15.2v4.7c0,8.3-3,14.9-18.3,14.9h-24.5
		c-13.7,0-21.8-3.4-21.8-17.9V50.4z"/>
	<path fill="#0093D0" d="M205.3,33h45.9c11.7,0,14.9,5.8,14.9,14.7v3.2c0,6.6-1.5,10.5-8.5,12.2v0.1c4.5,0.8,8.3,2.8,8.3,11v8.4
		h-15.2v-6c0-5.2-1.5-6.9-6.2-6.9h-23.9v12.9h-15.2V33z M220.5,57.4h25.1c4.1,0,5.6-1.6,5.6-5.2v-1.6c0-4.4-2.2-5.2-7-5.2h-23.8
		V57.4z"/>
	<path fill="#0093D0" d="M270.5,50.4c0-14.5,8.1-17.9,21.8-17.9h24.4c13.7,0,21.8,3.4,21.8,17.9v14.8c0,14.5-8.1,17.9-21.8,17.9
		h-24.4c-13.7,0-21.8-3.4-21.8-17.9V50.4z M285.3,60.5c0,7.2,1.5,9.9,8.7,9.9h19.4c7.2,0,8.7-2.7,8.7-9.9v-5.3
		c0-6.2-1.5-9.9-9.5-9.9h-17.8c-8,0-9.5,3.8-9.5,9.9V60.5z"/>
	<path fill="#0093D0" d="M410.9,57.3c0.8-0.9,22.3-23.8,22.3-23.8h-1.5h-16.5l-9.8,10.9l-4.3,5c0,0-1.3,1.6-1.3,1.6
		c0,0-0.5,0.7-0.9,1.2c-0.4-0.5-2.2-2.8-2.2-2.8c0,0-4.3-5-4.3-5l-9.8-10.9h-18.2c0,0,21.8,23,22.6,23.8
		c-0.9,0.9-24.3,25.4-24.3,25.4H381L391.6,71l6.3-7.3c0,0,0.7-0.8,1.1-1.4c0.4,0.5,1.1,1.3,1.1,1.3c0,0,1.5,1.9,1.5,1.9
		c0,0,4.6,5.5,4.6,5.5c0,0,10.5,11.7,10.5,11.7h17.9C434.6,82.8,411.7,58.2,410.9,57.3z"/>
	<path fill="#0093D0" d="M710.2,33h54.2v11.5h-39v7.9h37v10.3h-37v7.9h39.9v11.9h-55.1V33z"/>
</g>
<g>
	<path fill="#0093D0" d="M770,42.7v-9.6h2.9l1.7,6.6l1.7-6.6h2.9v9.6h-1.8l0-7.6l-1.9,7.6h-1.9l-1.9-7.6l0,7.6H770z"/>
	<path fill="#0093D0" d="M787.4,39.2l1.9,0.6c-0.3,1.1-0.8,1.9-1.4,2.4c-0.7,0.5-1.5,0.8-2.6,0.8c-1.3,0-2.3-0.4-3.1-1.3
		c-0.8-0.9-1.2-2.1-1.2-3.6c0-1.6,0.4-2.8,1.2-3.7c0.8-0.9,1.9-1.3,3.3-1.3c1.2,0,2.1,0.3,2.9,1c0.4,0.4,0.8,1,1,1.8l-1.9,0.5
		c-0.1-0.5-0.4-0.9-0.7-1.2c-0.4-0.3-0.8-0.4-1.3-0.4c-0.7,0-1.3,0.3-1.7,0.8c-0.4,0.5-0.7,1.3-0.7,2.5c0,1.2,0.2,2.1,0.7,2.6
		c0.4,0.5,1,0.8,1.7,0.8c0.5,0,1-0.2,1.3-0.5C787,40.4,787.2,39.9,787.4,39.2z"/>
</g>
<g>
	<path fill="#0093D0" d="M556.6,92h10.8l8,14.8l8-14.8h10.8v23h-6.9V98.5h-0.1L578,115h-5.3l-9.2-16.5h-0.1V115h-6.9V92z"/>
	<path fill="#0093D0" d="M599.9,92h25.2v5.3H607v3.7h17.2v4.8H607v3.7h18.5v5.5h-25.6V92z"/>
	<path fill="#0093D0" d="M630,92h21.3c7.1,0,9.5,2.3,9.5,8v7c0,5.7-2.5,8-9.5,8H630V92z M637.1,109.1h12.5c3,0,4.2-0.9,4.2-4.1v-3.1
		c0-3.3-1.2-4.1-4.2-4.1h-12.5V109.1z"/>
	<path fill="#0093D0" d="M674.3,92h9.2l12.6,23h-7.8l-2.2-4.1h-14.3l-2.1,4.1h-7.9L674.3,92z M674.4,106h9l-4.6-8.6L674.4,106z"/>
	<path fill="#0093D0" d="M691,92h7.7l9,17.1l9-17.1h7.7l-12.4,23h-8.7L691,92z"/>
	<path fill="#0093D0" d="M727.4,92h7.1v23h-7.1V92z"/>
	<path fill="#0093D0" d="M739.6,92h25.2v5.3h-18.1v3.7h17.2v4.8h-17.2v3.7h18.5v5.5h-25.6V92z"/>
</g>
</svg>
